<?xml version="1.0" standalone="no"?><!DOCTYPE svg PUBLIC "-//W3C//DTD SVG 1.1//EN" "http://www.w3.org/Graphics/SVG/1.1/DTD/svg11.dtd"><svg t="1646285904444" class="icon" viewBox="0 0 1024 1024" version="1.1" xmlns="http://www.w3.org/2000/svg" p-id="638" xmlns:xlink="http://www.w3.org/1999/xlink" width="200" height="200"><defs><style type="text/css"></style></defs><path d="M832 523.946667c0 46.933333-60.16 94.72-60.16 94.72S725.333333 546.56 725.333333 519.04 759.893333 469.333333 789.333333 469.333333s42.666667 27.093333 42.666667 54.613334zM192 523.946667c0 46.933333 60.16 94.72 60.16 94.72S298.666667 546.56 298.666667 519.04 264.106667 469.333333 234.666667 469.333333s-42.666667 27.093333-42.666667 54.613334z" fill="#FB8C00" p-id="639"></path><path d="M512 896a257.066667 257.066667 0 0 0 256-233.6l21.333333-234.666667H234.666667l21.333333 235.733334A257.066667 257.066667 0 0 0 512 896z" fill="#FFB74D" p-id="640"></path><path d="M597.333333 810.666667c-42.666667 0-54.4-42.666667-85.333333-42.666667s-42.666667 42.666667-85.333333 42.666667c-108.16 0-149.333333-256-149.333334-256 0 151.466667 0 341.333333 234.666667 341.333333s234.666667-189.866667 234.666667-341.333333c0 0-41.173333 256-149.333334 256z" fill="#607D8B" p-id="641"></path><path d="M512 106.666667c-192 0-277.333333 43.733333-277.333333 320h554.666666C789.333333 150.4 704 106.666667 512 106.666667z" fill="#283593" p-id="642"></path><path d="M754.773333 484.053333a59.733333 59.733333 0 0 1-76.373333 23.466667A397.866667 397.866667 0 0 0 512 469.333333a397.866667 397.866667 0 0 0-166.4 38.186667 59.733333 59.733333 0 0 1-76.373333-23.466667L234.666667 426.666667a632.96 632.96 0 0 1 554.666666 0z" fill="#3F51B5" p-id="643"></path><path d="M512 128m-42.666667 0a42.666667 42.666667 0 1 0 85.333334 0 42.666667 42.666667 0 1 0-85.333334 0Z" fill="#283593" p-id="644"></path><path d="M533.333333 565.333333a85.333333 74.666667 0 1 0 170.666667 0 85.333333 74.666667 0 1 0-170.666667 0Z" fill="#4E342E" p-id="645"></path><path d="M320 565.333333a85.333333 74.666667 0 1 0 170.666667 0 85.333333 74.666667 0 1 0-170.666667 0Z" fill="#4E342E" p-id="646"></path></svg>